# xmcd
#
# Track frame offsets: 
#        150
#        16985
#        33920
#        48719
#        65274
#        82086
#        101178
#        118610
#        132700
#        151417
#        173089
#        190978
#        205681
#
# Disc length: 2965 seconds
#
# Revision: 12
# Processed by: cddbd v1.4PL0 Copyright (c) Steve Scherf et al.
# Submitted via: ExactAudioCopy v0.90b4
#
DISCID=b50b930d
DTITLE=Shakira - Laundry Service
DYEAR=2001
DGENRE=Rock
TTITLE0=Objection (Tango)
TTITLE1=Underneath Your Clothes
TTITLE2=Whenever, Wherever
TTITLE3=Rules
TTITLE4=The One
TTITLE5=Ready For The Good Times
TTITLE6=Fool
TTITLE7=Te Dejo Madrid
TTITLE8=Poem To A Horse
TTITLE9=Que Me Quedes Tú
TTITLE10=Eyes Like Yours (Ojos Asi)
TTITLE11=Suerte (Whenever, Wherever)
TTITLE12=Te Aviso, Te Anuncio (Tango)
EXTD=
EXTT0=
EXTT1=
EXTT2=
EXTT3=
EXTT4=
EXTT5=
EXTT6=
EXTT7=
EXTT8=
EXTT9=
EXTT10=
EXTT11=
EXTT12=
PLAYORDER=
